<?xml version="1.0" encoding="UTF-8" standalone="no"?>
<!DOCTYPE svg PUBLIC "-//W3C//DTD SVG 1.1//EN"
 "http://www.w3.org/Graphics/SVG/1.1/DTD/svg11.dtd">
<!-- Generated by graphviz version 2.38.0 (20140413.2041)
 -->
<!-- Title: %3 Pages: 1 -->
<svg width="1236pt" height="620pt"
 viewBox="0.00 0.00 1235.63 620.00" xmlns="http://www.w3.org/2000/svg" xmlns:xlink="http://www.w3.org/1999/xlink">
<g id="graph0" class="graph" transform="scale(1 1) rotate(0) translate(4 616)">
<title>%3</title>
<polygon fill="white" stroke="none" points="-4,4 -4,-616 1231.63,-616 1231.63,4 -4,4"/>
<!-- [root] aws_eip.nat (expand) -->
<g id="node1" class="node"><title>[root] aws_eip.nat (expand)</title>
<polygon fill="none" stroke="black" points="824.628,-180 741.628,-180 741.628,-144 824.628,-144 824.628,-180"/>
<text text-anchor="middle" x="783.128" y="-158.3" font-family="Times New Roman,serif" font-size="14.00">aws_eip.nat</text>
</g>
<!-- [root] provider[&quot;registry.terraform.io/hashicorp/aws&quot;] -->
<g id="node15" class="node"><title>[root] provider[&quot;registry.terraform.io/hashicorp/aws&quot;]</title>
<polygon fill="none" stroke="black" points="537.128,-108 279.9,-90 537.128,-72 794.356,-90 537.128,-108"/>
<text text-anchor="middle" x="537.128" y="-86.3" font-family="Times New Roman,serif" font-size="14.00">provider[&quot;registry.terraform.io/hashicorp/aws&quot;]</text>
</g>
<!-- [root] aws_eip.nat (expand)&#45;&gt;[root] provider[&quot;registry.terraform.io/hashicorp/aws&quot;] -->
<g id="edge1" class="edge"><title>[root] aws_eip.nat (expand)&#45;&gt;[root] provider[&quot;registry.terraform.io/hashicorp/aws&quot;]</title>
<path fill="none" stroke="black" d="M741.397,-149.125C701.253,-137.702 640.204,-120.331 595.297,-107.552"/>
<polygon fill="black" stroke="black" points="595.978,-104.107 585.402,-104.736 594.062,-110.84 595.978,-104.107"/>
</g>
<!-- [root] aws_instance.EC2PrivateSubnet (expand) -->
<g id="node2" class="node"><title>[root] aws_instance.EC2PrivateSubnet (expand)</title>
<polygon fill="none" stroke="black" points="428.628,-468 231.628,-468 231.628,-432 428.628,-432 428.628,-468"/>
<text text-anchor="middle" x="330.128" y="-446.3" font-family="Times New Roman,serif" font-size="14.00">aws_instance.EC2PrivateSubnet</text>
</g>
<!-- [root] aws_key_pair.mykeypair (expand) -->
<g id="node5" class="node"><title>[root] aws_key_pair.mykeypair (expand)</title>
<polygon fill="none" stroke="black" points="170.628,-396 15.6277,-396 15.6277,-360 170.628,-360 170.628,-396"/>
<text text-anchor="middle" x="93.1277" y="-374.3" font-family="Times New Roman,serif" font-size="14.00">aws_key_pair.mykeypair</text>
</g>
<!-- [root] aws_instance.EC2PrivateSubnet (expand)&#45;&gt;[root] aws_key_pair.mykeypair (expand) -->
<g id="edge2" class="edge"><title>[root] aws_instance.EC2PrivateSubnet (expand)&#45;&gt;[root] aws_key_pair.mykeypair (expand)</title>
<path fill="none" stroke="black" d="M272.454,-431.966C238.764,-422.015 196.074,-409.406 160.799,-398.987"/>
<polygon fill="black" stroke="black" points="161.642,-395.587 151.06,-396.111 159.659,-402.3 161.642,-395.587"/>
</g>
<!-- [root] aws_security_group.allow&#45;ssh (expand) -->
<g id="node11" class="node"><title>[root] aws_security_group.allow&#45;ssh (expand)</title>
<polygon fill="none" stroke="black" points="465.128,-396 279.128,-396 279.128,-360 465.128,-360 465.128,-396"/>
<text text-anchor="middle" x="372.128" y="-374.3" font-family="Times New Roman,serif" font-size="14.00">aws_security_group.allow&#45;ssh</text>
</g>
<!-- [root] aws_instance.EC2PrivateSubnet (expand)&#45;&gt;[root] aws_security_group.allow&#45;ssh (expand) -->
<g id="edge3" class="edge"><title>[root] aws_instance.EC2PrivateSubnet (expand)&#45;&gt;[root] aws_security_group.allow&#45;ssh (expand)</title>
<path fill="none" stroke="black" d="M340.51,-431.697C345.392,-423.559 351.314,-413.689 356.707,-404.701"/>
<polygon fill="black" stroke="black" points="359.721,-406.48 361.865,-396.104 353.719,-402.879 359.721,-406.48"/>
</g>
<!-- [root] aws_subnet.main&#45;private&#45;1 (expand) -->
<g id="node12" class="node"><title>[root] aws_subnet.main&#45;private&#45;1 (expand)</title>
<polygon fill="none" stroke="black" points="687.128,-396 521.128,-396 521.128,-360 687.128,-360 687.128,-396"/>
<text text-anchor="middle" x="604.128" y="-374.3" font-family="Times New Roman,serif" font-size="14.00">aws_subnet.main&#45;private&#45;1</text>
</g>
<!-- [root] aws_instance.EC2PrivateSubnet (expand)&#45;&gt;[root] aws_subnet.main&#45;private&#45;1 (expand) -->
<g id="edge4" class="edge"><title>[root] aws_instance.EC2PrivateSubnet (expand)&#45;&gt;[root] aws_subnet.main&#45;private&#45;1 (expand)</title>
<path fill="none" stroke="black" d="M396.805,-431.966C436.254,-421.887 486.376,-409.082 527.456,-398.588"/>
<polygon fill="black" stroke="black" points="528.329,-401.977 537.151,-396.111 526.596,-395.195 528.329,-401.977"/>
</g>
<!-- [root] var.AMIS -->
<g id="node16" class="node"><title>[root] var.AMIS</title>
<polygon fill="none" stroke="black" points="255.128,-396 189.128,-396 189.128,-360 261.128,-360 261.128,-390 255.128,-396"/>
<polyline fill="none" stroke="black" points="255.128,-396 255.128,-390 "/>
<polyline fill="none" stroke="black" points="261.128,-390 255.128,-390 "/>
<text text-anchor="middle" x="225.128" y="-374.3" font-family="Times New Roman,serif" font-size="14.00">var.AMIS</text>
</g>
<!-- [root] aws_instance.EC2PrivateSubnet (expand)&#45;&gt;[root] var.AMIS -->
<g id="edge5" class="edge"><title>[root] aws_instance.EC2PrivateSubnet (expand)&#45;&gt;[root] var.AMIS</title>
<path fill="none" stroke="black" d="M304.442,-431.876C290.84,-422.808 273.956,-411.552 259.266,-401.759"/>
<polygon fill="black" stroke="black" points="261.174,-398.825 250.912,-396.19 257.291,-404.649 261.174,-398.825"/>
</g>
<!-- [root] aws_instance.EC2PublicSubnet (expand) -->
<g id="node3" class="node"><title>[root] aws_instance.EC2PublicSubnet (expand)</title>
<polygon fill="none" stroke="black" points="213.128,-468 19.1277,-468 19.1277,-432 213.128,-432 213.128,-468"/>
<text text-anchor="middle" x="116.128" y="-446.3" font-family="Times New Roman,serif" font-size="14.00">aws_instance.EC2PublicSubnet</text>
</g>
<!-- [root] aws_instance.EC2PublicSubnet (expand)&#45;&gt;[root] aws_key_pair.mykeypair (expand) -->
<g id="edge6" class="edge"><title>[root] aws_instance.EC2PublicSubnet (expand)&#45;&gt;[root] aws_key_pair.mykeypair (expand)</title>
<path fill="none" stroke="black" d="M110.442,-431.697C107.88,-423.898 104.795,-414.509 101.943,-405.829"/>
<polygon fill="black" stroke="black" points="105.194,-404.512 98.7477,-396.104 98.5442,-406.697 105.194,-404.512"/>
</g>
<!-- [root] aws_instance.EC2PublicSubnet (expand)&#45;&gt;[root] aws_security_group.allow&#45;ssh (expand) -->
<g id="edge7" class="edge"><title>[root] aws_instance.EC2PublicSubnet (expand)&#45;&gt;[root] aws_security_group.allow&#45;ssh (expand)</title>
<path fill="none" stroke="black" d="M178.425,-431.966C214.972,-421.972 261.322,-409.298 299.519,-398.854"/>
<polygon fill="black" stroke="black" points="300.828,-402.124 309.551,-396.111 298.982,-395.372 300.828,-402.124"/>
</g>
<!-- [root] aws_subnet.main&#45;public&#45;1 (expand) -->
<g id="node13" class="node"><title>[root] aws_subnet.main&#45;public&#45;1 (expand)</title>
<polygon fill="none" stroke="black" points="563.628,-252 400.628,-252 400.628,-216 563.628,-216 563.628,-252"/>
<text text-anchor="middle" x="482.128" y="-230.3" font-family="Times New Roman,serif" font-size="14.00">aws_subnet.main&#45;public&#45;1</text>
</g>
<!-- [root] aws_instance.EC2PublicSubnet (expand)&#45;&gt;[root] aws_subnet.main&#45;public&#45;1 (expand) -->
<g id="edge8" class="edge"><title>[root] aws_instance.EC2PublicSubnet (expand)&#45;&gt;[root] aws_subnet.main&#45;public&#45;1 (expand)</title>
<path fill="none" stroke="black" d="M51.3093,-431.947C33.6264,-424.004 16.502,-412.514 6.12773,-396 -2.38344,-382.452 -1.36086,-374.139 6.12773,-360 32.7831,-309.672 59.0195,-308.566 112.128,-288 202.616,-252.958 313.636,-240.77 390.327,-236.694"/>
<polygon fill="black" stroke="black" points="390.63,-240.183 400.444,-236.192 390.283,-233.191 390.63,-240.183"/>
</g>
<!-- [root] aws_instance.EC2PublicSubnet (expand)&#45;&gt;[root] var.AMIS -->
<g id="edge9" class="edge"><title>[root] aws_instance.EC2PublicSubnet (expand)&#45;&gt;[root] var.AMIS</title>
<path fill="none" stroke="black" d="M142.792,-431.876C156.912,-422.808 174.439,-411.552 189.688,-401.759"/>
<polygon fill="black" stroke="black" points="191.838,-404.538 198.361,-396.19 188.055,-398.648 191.838,-404.538"/>
</g>
<!-- [root] aws_internet_gateway.main&#45;gw (expand) -->
<g id="node4" class="node"><title>[root] aws_internet_gateway.main&#45;gw (expand)</title>
<polygon fill="none" stroke="black" points="810.128,-252 620.128,-252 620.128,-216 810.128,-216 810.128,-252"/>
<text text-anchor="middle" x="715.128" y="-230.3" font-family="Times New Roman,serif" font-size="14.00">aws_internet_gateway.main&#45;gw</text>
</g>
<!-- [root] aws_vpc.main (expand) -->
<g id="node14" class="node"><title>[root] aws_vpc.main (expand)</title>
<polygon fill="none" stroke="black" points="585.628,-180 488.628,-180 488.628,-144 585.628,-144 585.628,-180"/>
<text text-anchor="middle" x="537.128" y="-158.3" font-family="Times New Roman,serif" font-size="14.00">aws_vpc.main</text>
</g>
<!-- [root] aws_internet_gateway.main&#45;gw (expand)&#45;&gt;[root] aws_vpc.main (expand) -->
<g id="edge10" class="edge"><title>[root] aws_internet_gateway.main&#45;gw (expand)&#45;&gt;[root] aws_vpc.main (expand)</title>
<path fill="none" stroke="black" d="M671.584,-215.876C646.926,-206.179 615.904,-193.98 589.873,-183.743"/>
<polygon fill="black" stroke="black" points="591.117,-180.471 580.53,-180.068 588.555,-186.985 591.117,-180.471"/>
</g>
<!-- [root] aws_key_pair.mykeypair (expand)&#45;&gt;[root] provider[&quot;registry.terraform.io/hashicorp/aws&quot;] -->
<g id="edge11" class="edge"><title>[root] aws_key_pair.mykeypair (expand)&#45;&gt;[root] provider[&quot;registry.terraform.io/hashicorp/aws&quot;]</title>
<path fill="none" stroke="black" d="M92.4527,-359.686C92.5988,-340.214 95.6698,-308.623 112.128,-288 199.336,-178.72 361.08,-127.371 457.922,-105.429"/>
<polygon fill="black" stroke="black" points="458.947,-108.787 467.954,-103.209 457.434,-101.953 458.947,-108.787"/>
</g>
<!-- [root] var.PATH_TO_PUBLIC_KEY -->
<g id="node21" class="node"><title>[root] var.PATH_TO_PUBLIC_KEY</title>
<polygon fill="none" stroke="black" points="309.128,-324 121.128,-324 121.128,-288 315.128,-288 315.128,-318 309.128,-324"/>
<polyline fill="none" stroke="black" points="309.128,-324 309.128,-318 "/>
<polyline fill="none" stroke="black" points="315.128,-318 309.128,-318 "/>
<text text-anchor="middle" x="218.128" y="-302.3" font-family="Times New Roman,serif" font-size="14.00">var.PATH_TO_PUBLIC_KEY</text>
</g>
<!-- [root] aws_key_pair.mykeypair (expand)&#45;&gt;[root] var.PATH_TO_PUBLIC_KEY -->
<g id="edge12" class="edge"><title>[root] aws_key_pair.mykeypair (expand)&#45;&gt;[root] var.PATH_TO_PUBLIC_KEY</title>
<path fill="none" stroke="black" d="M123.706,-359.876C140.201,-350.639 160.751,-339.131 178.464,-329.212"/>
<polygon fill="black" stroke="black" points="180.417,-332.13 187.432,-324.19 176.997,-326.022 180.417,-332.13"/>
</g>
<!-- [root] aws_nat_gateway.nat&#45;gw (expand) -->
<g id="node6" class="node"><title>[root] aws_nat_gateway.nat&#45;gw (expand)</title>
<polygon fill="none" stroke="black" points="972.128,-324 816.128,-324 816.128,-288 972.128,-288 972.128,-324"/>
<text text-anchor="middle" x="894.128" y="-302.3" font-family="Times New Roman,serif" font-size="14.00">aws_nat_gateway.nat&#45;gw</text>
</g>
<!-- [root] aws_nat_gateway.nat&#45;gw (expand)&#45;&gt;[root] aws_eip.nat (expand) -->
<g id="edge13" class="edge"><title>[root] aws_nat_gateway.nat&#45;gw (expand)&#45;&gt;[root] aws_eip.nat (expand)</title>
<path fill="none" stroke="black" d="M880.739,-287.871C861.321,-263.031 825.219,-216.846 802.781,-188.142"/>
<polygon fill="black" stroke="black" points="805.481,-185.912 796.564,-180.189 799.966,-190.223 805.481,-185.912"/>
</g>
<!-- [root] aws_nat_gateway.nat&#45;gw (expand)&#45;&gt;[root] aws_internet_gateway.main&#45;gw (expand) -->
<g id="edge14" class="edge"><title>[root] aws_nat_gateway.nat&#45;gw (expand)&#45;&gt;[root] aws_internet_gateway.main&#45;gw (expand)</title>
<path fill="none" stroke="black" d="M850.339,-287.876C825.543,-278.179 794.347,-265.98 768.17,-255.743"/>
<polygon fill="black" stroke="black" points="769.362,-252.451 758.774,-252.068 766.812,-258.97 769.362,-252.451"/>
</g>
<!-- [root] aws_nat_gateway.nat&#45;gw (expand)&#45;&gt;[root] aws_subnet.main&#45;public&#45;1 (expand) -->
<g id="edge15" class="edge"><title>[root] aws_nat_gateway.nat&#45;gw (expand)&#45;&gt;[root] aws_subnet.main&#45;public&#45;1 (expand)</title>
<path fill="none" stroke="black" d="M815.939,-289.775C812.626,-289.168 809.345,-288.574 806.128,-288 727.965,-274.06 638.934,-259.598 574.005,-249.31"/>
<polygon fill="black" stroke="black" points="574.22,-245.801 563.796,-247.695 573.127,-252.715 574.22,-245.801"/>
</g>
<!-- [root] aws_route_table.main&#45;private (expand) -->
<g id="node7" class="node"><title>[root] aws_route_table.main&#45;private (expand)</title>
<polygon fill="none" stroke="black" points="972.128,-396 792.128,-396 792.128,-360 972.128,-360 972.128,-396"/>
<text text-anchor="middle" x="882.128" y="-374.3" font-family="Times New Roman,serif" font-size="14.00">aws_route_table.main&#45;private</text>
</g>
<!-- [root] aws_route_table.main&#45;private (expand)&#45;&gt;[root] aws_nat_gateway.nat&#45;gw (expand) -->
<g id="edge16" class="edge"><title>[root] aws_route_table.main&#45;private (expand)&#45;&gt;[root] aws_nat_gateway.nat&#45;gw (expand)</title>
<path fill="none" stroke="black" d="M885.094,-359.697C886.416,-351.983 888.006,-342.712 889.48,-334.112"/>
<polygon fill="black" stroke="black" points="892.956,-334.552 891.196,-324.104 886.056,-333.369 892.956,-334.552"/>
</g>
<!-- [root] aws_route_table.main&#45;public (expand) -->
<g id="node8" class="node"><title>[root] aws_route_table.main&#45;public (expand)</title>
<polygon fill="none" stroke="black" points="797.628,-324 620.628,-324 620.628,-288 797.628,-288 797.628,-324"/>
<text text-anchor="middle" x="709.128" y="-302.3" font-family="Times New Roman,serif" font-size="14.00">aws_route_table.main&#45;public</text>
</g>
<!-- [root] aws_route_table.main&#45;public (expand)&#45;&gt;[root] aws_internet_gateway.main&#45;gw (expand) -->
<g id="edge17" class="edge"><title>[root] aws_route_table.main&#45;public (expand)&#45;&gt;[root] aws_internet_gateway.main&#45;gw (expand)</title>
<path fill="none" stroke="black" d="M710.611,-287.697C711.272,-279.983 712.067,-270.712 712.804,-262.112"/>
<polygon fill="black" stroke="black" points="716.295,-262.367 713.662,-252.104 709.32,-261.769 716.295,-262.367"/>
</g>
<!-- [root] aws_route_table_association.main&#45;private&#45;1&#45;a (expand) -->
<g id="node9" class="node"><title>[root] aws_route_table_association.main&#45;private&#45;1&#45;a (expand)</title>
<polygon fill="none" stroke="black" points="1006.13,-468 734.128,-468 734.128,-432 1006.13,-432 1006.13,-468"/>
<text text-anchor="middle" x="870.128" y="-446.3" font-family="Times New Roman,serif" font-size="14.00">aws_route_table_association.main&#45;private&#45;1&#45;a</text>
</g>
<!-- [root] aws_route_table_association.main&#45;private&#45;1&#45;a (expand)&#45;&gt;[root] aws_route_table.main&#45;private (expand) -->
<g id="edge18" class="edge"><title>[root] aws_route_table_association.main&#45;private&#45;1&#45;a (expand)&#45;&gt;[root] aws_route_table.main&#45;private (expand)</title>
<path fill="none" stroke="black" d="M873.094,-431.697C874.416,-423.983 876.006,-414.712 877.48,-406.112"/>
<polygon fill="black" stroke="black" points="880.956,-406.552 879.196,-396.104 874.056,-405.369 880.956,-406.552"/>
</g>
<!-- [root] aws_route_table_association.main&#45;private&#45;1&#45;a (expand)&#45;&gt;[root] aws_subnet.main&#45;private&#45;1 (expand) -->
<g id="edge19" class="edge"><title>[root] aws_route_table_association.main&#45;private&#45;1&#45;a (expand)&#45;&gt;[root] aws_subnet.main&#45;private&#45;1 (expand)</title>
<path fill="none" stroke="black" d="M805.397,-431.966C767.261,-421.93 718.852,-409.19 679.066,-398.721"/>
<polygon fill="black" stroke="black" points="679.71,-395.271 669.149,-396.111 677.929,-402.041 679.71,-395.271"/>
</g>
<!-- [root] aws_route_table_association.main&#45;public&#45;1&#45;a (expand) -->
<g id="node10" class="node"><title>[root] aws_route_table_association.main&#45;public&#45;1&#45;a (expand)</title>
<polygon fill="none" stroke="black" points="715.628,-468 446.628,-468 446.628,-432 715.628,-432 715.628,-468"/>
<text text-anchor="middle" x="581.128" y="-446.3" font-family="Times New Roman,serif" font-size="14.00">aws_route_table_association.main&#45;public&#45;1&#45;a</text>
</g>
<!-- [root] aws_route_table_association.main&#45;public&#45;1&#45;a (expand)&#45;&gt;[root] aws_route_table.main&#45;public (expand) -->
<g id="edge20" class="edge"><title>[root] aws_route_table_association.main&#45;public&#45;1&#45;a (expand)&#45;&gt;[root] aws_route_table.main&#45;public (expand)</title>
<path fill="none" stroke="black" d="M646.434,-431.945C665.162,-423.969 683.82,-412.462 696.128,-396 709.242,-378.459 711.889,-353.424 711.601,-334.372"/>
<polygon fill="black" stroke="black" points="715.091,-334.06 711.168,-324.218 708.097,-334.358 715.091,-334.06"/>
</g>
<!-- [root] aws_route_table_association.main&#45;public&#45;1&#45;a (expand)&#45;&gt;[root] aws_subnet.main&#45;public&#45;1 (expand) -->
<g id="edge21" class="edge"><title>[root] aws_route_table_association.main&#45;public&#45;1&#45;a (expand)&#45;&gt;[root] aws_subnet.main&#45;public&#45;1 (expand)</title>
<path fill="none" stroke="black" d="M549.653,-431.954C536.054,-423.008 521.207,-410.809 512.128,-396 486.648,-354.443 481.841,-296.338 481.445,-262.489"/>
<polygon fill="black" stroke="black" points="484.945,-262.405 481.451,-252.403 477.945,-262.4 484.945,-262.405"/>
</g>
<!-- [root] aws_security_group.allow&#45;ssh (expand)&#45;&gt;[root] aws_vpc.main (expand) -->
<g id="edge22" class="edge"><title>[root] aws_security_group.allow&#45;ssh (expand)&#45;&gt;[root] aws_vpc.main (expand)</title>
<path fill="none" stroke="black" d="M368.804,-359.786C363.661,-327.741 357.569,-258.356 391.128,-216 412.116,-189.51 447.547,-176.254 478.25,-169.624"/>
<polygon fill="black" stroke="black" points="479.315,-172.982 488.453,-167.62 477.966,-166.113 479.315,-172.982"/>
</g>
<!-- [root] aws_subnet.main&#45;private&#45;1 (expand)&#45;&gt;[root] aws_vpc.main (expand) -->
<g id="edge23" class="edge"><title>[root] aws_subnet.main&#45;private&#45;1 (expand)&#45;&gt;[root] aws_vpc.main (expand)</title>
<path fill="none" stroke="black" d="M602.906,-359.926C600.286,-329.831 592.601,-265.819 572.128,-216 568.208,-206.462 562.482,-196.82 556.792,-188.423"/>
<polygon fill="black" stroke="black" points="559.589,-186.317 550.952,-180.179 553.876,-190.363 559.589,-186.317"/>
</g>
<!-- [root] aws_subnet.main&#45;public&#45;1 (expand)&#45;&gt;[root] aws_vpc.main (expand) -->
<g id="edge24" class="edge"><title>[root] aws_subnet.main&#45;public&#45;1 (expand)&#45;&gt;[root] aws_vpc.main (expand)</title>
<path fill="none" stroke="black" d="M495.723,-215.697C502.25,-207.389 510.196,-197.277 517.374,-188.141"/>
<polygon fill="black" stroke="black" points="520.262,-190.13 523.689,-180.104 514.758,-185.805 520.262,-190.13"/>
</g>
<!-- [root] aws_vpc.main (expand)&#45;&gt;[root] provider[&quot;registry.terraform.io/hashicorp/aws&quot;] -->
<g id="edge25" class="edge"><title>[root] aws_vpc.main (expand)&#45;&gt;[root] provider[&quot;registry.terraform.io/hashicorp/aws&quot;]</title>
<path fill="none" stroke="black" d="M537.128,-143.697C537.128,-135.983 537.128,-126.712 537.128,-118.112"/>
<polygon fill="black" stroke="black" points="540.628,-118.104 537.128,-108.104 533.628,-118.104 540.628,-118.104"/>
</g>
<!-- [root] var.AWS_ACCESS_KEY -->
<g id="node17" class="node"><title>[root] var.AWS_ACCESS_KEY</title>
<polygon fill="none" stroke="black" points="448.128,-36 288.128,-36 288.128,-0 454.128,-0 454.128,-30 448.128,-36"/>
<polyline fill="none" stroke="black" points="448.128,-36 448.128,-30 "/>
<polyline fill="none" stroke="black" points="454.128,-30 448.128,-30 "/>
<text text-anchor="middle" x="371.128" y="-14.3" font-family="Times New Roman,serif" font-size="14.00">var.AWS_ACCESS_KEY</text>
</g>
<!-- [root] provider[&quot;registry.terraform.io/hashicorp/aws&quot;]&#45;&gt;[root] var.AWS_ACCESS_KEY -->
<g id="edge35" class="edge"><title>[root] provider[&quot;registry.terraform.io/hashicorp/aws&quot;]&#45;&gt;[root] var.AWS_ACCESS_KEY</title>
<path fill="none" stroke="black" d="M502.329,-74.3257C478.79,-64.3996 447.335,-51.1357 421.125,-40.0834"/>
<polygon fill="black" stroke="black" points="422.305,-36.7824 411.731,-36.1218 419.585,-43.2324 422.305,-36.7824"/>
</g>
<!-- [root] var.AWS_REGION -->
<g id="node18" class="node"><title>[root] var.AWS_REGION</title>
<polygon fill="none" stroke="black" points="596.128,-36 472.128,-36 472.128,-0 602.128,-0 602.128,-30 596.128,-36"/>
<polyline fill="none" stroke="black" points="596.128,-36 596.128,-30 "/>
<polyline fill="none" stroke="black" points="602.128,-30 596.128,-30 "/>
<text text-anchor="middle" x="537.128" y="-14.3" font-family="Times New Roman,serif" font-size="14.00">var.AWS_REGION</text>
</g>
<!-- [root] provider[&quot;registry.terraform.io/hashicorp/aws&quot;]&#45;&gt;[root] var.AWS_REGION -->
<g id="edge36" class="edge"><title>[root] provider[&quot;registry.terraform.io/hashicorp/aws&quot;]&#45;&gt;[root] var.AWS_REGION</title>
<path fill="none" stroke="black" d="M537.128,-71.6966C537.128,-63.9827 537.128,-54.7125 537.128,-46.1124"/>
<polygon fill="black" stroke="black" points="540.628,-46.1043 537.128,-36.1043 533.628,-46.1044 540.628,-46.1043"/>
</g>
<!-- [root] var.AWS_SECRET_KEY -->
<g id="node19" class="node"><title>[root] var.AWS_SECRET_KEY</title>
<polygon fill="none" stroke="black" points="779.628,-36 620.628,-36 620.628,-0 785.628,-0 785.628,-30 779.628,-36"/>
<polyline fill="none" stroke="black" points="779.628,-36 779.628,-30 "/>
<polyline fill="none" stroke="black" points="785.628,-30 779.628,-30 "/>
<text text-anchor="middle" x="703.128" y="-14.3" font-family="Times New Roman,serif" font-size="14.00">var.AWS_SECRET_KEY</text>
</g>
<!-- [root] provider[&quot;registry.terraform.io/hashicorp/aws&quot;]&#45;&gt;[root] var.AWS_SECRET_KEY -->
<g id="edge37" class="edge"><title>[root] provider[&quot;registry.terraform.io/hashicorp/aws&quot;]&#45;&gt;[root] var.AWS_SECRET_KEY</title>
<path fill="none" stroke="black" d="M571.927,-74.3257C595.466,-64.3996 626.92,-51.1357 653.13,-40.0834"/>
<polygon fill="black" stroke="black" points="654.67,-43.2324 662.525,-36.1218 651.95,-36.7824 654.67,-43.2324"/>
</g>
<!-- [root] var.PATH_TO_PRIVATE_KEY -->
<g id="node20" class="node"><title>[root] var.PATH_TO_PRIVATE_KEY</title>
<polygon fill="none" stroke="black" points="1221.63,-468 1024.63,-468 1024.63,-432 1227.63,-432 1227.63,-462 1221.63,-468"/>
<polyline fill="none" stroke="black" points="1221.63,-468 1221.63,-462 "/>
<polyline fill="none" stroke="black" points="1227.63,-462 1221.63,-462 "/>
<text text-anchor="middle" x="1126.13" y="-446.3" font-family="Times New Roman,serif" font-size="14.00">var.PATH_TO_PRIVATE_KEY</text>
</g>
<!-- [root] meta.count&#45;boundary (EachMode fixup) -->
<g id="node22" class="node"><title>[root] meta.count&#45;boundary (EachMode fixup)</title>
<ellipse fill="none" stroke="black" cx="761.128" cy="-522" rx="180.868" ry="18"/>
<text text-anchor="middle" x="761.128" y="-518.3" font-family="Times New Roman,serif" font-size="14.00">[root] meta.count&#45;boundary (EachMode fixup)</text>
</g>
<!-- [root] meta.count&#45;boundary (EachMode fixup)&#45;&gt;[root] aws_instance.EC2PrivateSubnet (expand) -->
<g id="edge26" class="edge"><title>[root] meta.count&#45;boundary (EachMode fixup)&#45;&gt;[root] aws_instance.EC2PrivateSubnet (expand)</title>
<path fill="none" stroke="black" d="M671.038,-506.368C603.396,-495.382 510.469,-480.29 438.719,-468.637"/>
<polygon fill="black" stroke="black" points="439.172,-465.164 428.74,-467.016 438.05,-472.074 439.172,-465.164"/>
</g>
<!-- [root] meta.count&#45;boundary (EachMode fixup)&#45;&gt;[root] aws_instance.EC2PublicSubnet (expand) -->
<g id="edge27" class="edge"><title>[root] meta.count&#45;boundary (EachMode fixup)&#45;&gt;[root] aws_instance.EC2PublicSubnet (expand)</title>
<path fill="none" stroke="black" d="M632.868,-509.298C504.168,-497.399 313.554,-479.308 223.137,-468.069"/>
<polygon fill="black" stroke="black" points="223.5,-464.588 213.139,-466.801 222.619,-471.532 223.5,-464.588"/>
</g>
<!-- [root] meta.count&#45;boundary (EachMode fixup)&#45;&gt;[root] aws_route_table_association.main&#45;private&#45;1&#45;a (expand) -->
<g id="edge28" class="edge"><title>[root] meta.count&#45;boundary (EachMode fixup)&#45;&gt;[root] aws_route_table_association.main&#45;private&#45;1&#45;a (expand)</title>
<path fill="none" stroke="black" d="M787.514,-504.055C801.734,-494.922 819.471,-483.532 834.861,-473.648"/>
<polygon fill="black" stroke="black" points="837.084,-476.38 843.607,-468.032 833.301,-470.49 837.084,-476.38"/>
</g>
<!-- [root] meta.count&#45;boundary (EachMode fixup)&#45;&gt;[root] aws_route_table_association.main&#45;public&#45;1&#45;a (expand) -->
<g id="edge29" class="edge"><title>[root] meta.count&#45;boundary (EachMode fixup)&#45;&gt;[root] aws_route_table_association.main&#45;public&#45;1&#45;a (expand)</title>
<path fill="none" stroke="black" d="M718.47,-504.411C693.378,-494.653 661.422,-482.226 634.65,-471.814"/>
<polygon fill="black" stroke="black" points="635.632,-468.441 625.044,-468.078 633.095,-474.965 635.632,-468.441"/>
</g>
<!-- [root] meta.count&#45;boundary (EachMode fixup)&#45;&gt;[root] var.PATH_TO_PRIVATE_KEY -->
<g id="edge30" class="edge"><title>[root] meta.count&#45;boundary (EachMode fixup)&#45;&gt;[root] var.PATH_TO_PRIVATE_KEY</title>
<path fill="none" stroke="black" d="M840.327,-505.811C895.229,-495.282 968.728,-481.186 1027.44,-469.926"/>
<polygon fill="black" stroke="black" points="1028.31,-473.323 1037.48,-468.002 1027,-466.448 1028.31,-473.323"/>
</g>
<!-- [root] provider[&quot;registry.terraform.io/hashicorp/aws&quot;] (close) -->
<g id="node23" class="node"><title>[root] provider[&quot;registry.terraform.io/hashicorp/aws&quot;] (close)</title>
<ellipse fill="none" stroke="black" cx="330.128" cy="-522" rx="232.859" ry="18"/>
<text text-anchor="middle" x="330.128" y="-518.3" font-family="Times New Roman,serif" font-size="14.00">[root] provider[&quot;registry.terraform.io/hashicorp/aws&quot;] (close)</text>
</g>
<!-- [root] provider[&quot;registry.terraform.io/hashicorp/aws&quot;] (close)&#45;&gt;[root] aws_instance.EC2PrivateSubnet (expand) -->
<g id="edge31" class="edge"><title>[root] provider[&quot;registry.terraform.io/hashicorp/aws&quot;] (close)&#45;&gt;[root] aws_instance.EC2PrivateSubnet (expand)</title>
<path fill="none" stroke="black" d="M330.128,-503.697C330.128,-495.983 330.128,-486.712 330.128,-478.112"/>
<polygon fill="black" stroke="black" points="333.628,-478.104 330.128,-468.104 326.628,-478.104 333.628,-478.104"/>
</g>
<!-- [root] provider[&quot;registry.terraform.io/hashicorp/aws&quot;] (close)&#45;&gt;[root] aws_instance.EC2PublicSubnet (expand) -->
<g id="edge32" class="edge"><title>[root] provider[&quot;registry.terraform.io/hashicorp/aws&quot;] (close)&#45;&gt;[root] aws_instance.EC2PublicSubnet (expand)</title>
<path fill="none" stroke="black" d="M279.413,-504.411C249.058,-494.482 210.254,-481.789 178.091,-471.268"/>
<polygon fill="black" stroke="black" points="178.932,-467.861 168.339,-468.078 176.755,-474.514 178.932,-467.861"/>
</g>
<!-- [root] provider[&quot;registry.terraform.io/hashicorp/aws&quot;] (close)&#45;&gt;[root] aws_route_table_association.main&#45;private&#45;1&#45;a (expand) -->
<g id="edge33" class="edge"><title>[root] provider[&quot;registry.terraform.io/hashicorp/aws&quot;] (close)&#45;&gt;[root] aws_route_table_association.main&#45;private&#45;1&#45;a (expand)</title>
<path fill="none" stroke="black" d="M443.659,-506.283C526.616,-495.529 639.665,-480.875 728.526,-469.356"/>
<polygon fill="black" stroke="black" points="729.222,-472.795 738.689,-468.038 728.322,-465.853 729.222,-472.795"/>
</g>
<!-- [root] provider[&quot;registry.terraform.io/hashicorp/aws&quot;] (close)&#45;&gt;[root] aws_route_table_association.main&#45;public&#45;1&#45;a (expand) -->
<g id="edge34" class="edge"><title>[root] provider[&quot;registry.terraform.io/hashicorp/aws&quot;] (close)&#45;&gt;[root] aws_route_table_association.main&#45;public&#45;1&#45;a (expand)</title>
<path fill="none" stroke="black" d="M389.293,-504.5C425.349,-494.444 471.655,-481.53 509.739,-470.909"/>
<polygon fill="black" stroke="black" points="511.046,-474.178 519.738,-468.121 509.165,-467.436 511.046,-474.178"/>
</g>
<!-- [root] root -->
<g id="node24" class="node"><title>[root] root</title>
<ellipse fill="none" stroke="black" cx="545.128" cy="-594" rx="49.2915" ry="18"/>
<text text-anchor="middle" x="545.128" y="-590.3" font-family="Times New Roman,serif" font-size="14.00">[root] root</text>
</g>
<!-- [root] root&#45;&gt;[root] meta.count&#45;boundary (EachMode fixup) -->
<g id="edge38" class="edge"><title>[root] root&#45;&gt;[root] meta.count&#45;boundary (EachMode fixup)</title>
<path fill="none" stroke="black" d="M580.796,-581.441C613.493,-570.845 662.56,-554.943 701.261,-542.401"/>
<polygon fill="black" stroke="black" points="702.426,-545.703 710.86,-539.29 700.268,-539.044 702.426,-545.703"/>
</g>
<!-- [root] root&#45;&gt;[root] provider[&quot;registry.terraform.io/hashicorp/aws&quot;] (close) -->
<g id="edge39" class="edge"><title>[root] root&#45;&gt;[root] provider[&quot;registry.terraform.io/hashicorp/aws&quot;] (close)</title>
<path fill="none" stroke="black" d="M509.625,-581.441C477.409,-570.952 429.228,-555.265 390.892,-542.784"/>
<polygon fill="black" stroke="black" points="391.966,-539.453 381.374,-539.685 389.799,-546.109 391.966,-539.453"/>
</g>
</g>
</svg>
